<svg width="45" height="46" viewBox="0 0 45 46" fill="none" xmlns="http://www.w3.org/2000/svg">
<path d="M30.7129 7.66714L31.2606 9.85778L34.4754 14.6801L35.0942 14.7867L37.8325 10.9531L38.9278 9.31012V6.57182L39.4755 3.83352L37.8325 1.64288L35.6419 1.09521H33.4512L31.8082 2.19054L30.7129 3.83352L30.1653 5.4765L30.7129 7.66714Z" fill="#BFBEBE"/>
<path d="M26.8793 31.2165V43.2651H24.141V36.6931V24.6446L24.6887 18.6203L25.2363 15.3344L28.5223 15.882L27.427 17.525L26.8793 21.9063V31.2165Z" fill="#BFBEBE"/>
<path d="M8.25884 29.0259L8.8065 38.8838L11.5448 39.4314L10.9971 36.1455L10.4495 29.5735V23.0016V16.9774L10.9971 13.1437H8.8065L8.25884 14.2391L7.71118 19.168L8.25884 29.0259Z" fill="#BFBEBE"/>
<path d="M37.3908 13.3221C39.363 10.0759 41.6102 6.16834 39.7309 2.71478C38.6855 0.793604 36.3364 -0.321728 34.1868 0.0823627C31.4918 0.589184 29.7785 3.18516 29.7785 5.97135C29.7785 7.70272 31.2633 10.5085 32.5447 12.6103C30.0079 12.2341 29.6719 12.1873 27.0393 11.8016C27.066 11.5002 27.0895 11.2009 27.1247 10.8975C27.2242 10.0349 26.6609 9.25385 25.8149 9.08174C23.2222 8.55228 21.0421 8.13687 18.569 7.9931C17.8125 7.95578 17.1224 8.43962 16.905 9.15846C16.8096 9.47421 16.7038 9.8012 16.5327 10.3262C14.3109 10.0968 12.2627 9.99922 10.4527 10.0453C7.24414 10.1185 3.42355 11.3668 1.75466 12.8868C1.69923 12.9373 1.6578 12.9972 1.62886 13.0615C0.643183 14.1687 0.742772 15.9358 0.852647 17.392C2.29575 35.7445 1.87414 36.3 3.33495 37.5602C2.59381 37.6199 1.12999 37.8621 0.218086 38.2397C-0.047636 38.3498 0.00290766 38.7427 0.287033 38.7875C19.3206 41.7859 30.0231 45.1409 34.6241 45.2422L34.5653 45.2598C34.6788 45.298 34.799 45.2978 34.9173 45.2811C35.3168 45.3196 35.6909 45.2986 36.0767 45.1611C37.2669 44.8961 40.3622 42.0993 40.8791 40.2803C42.0509 36.0925 41.6096 24.1418 41.8475 18.2505C41.8834 17.2862 41.9329 15.9667 41.1981 14.9617C40.2804 13.7124 38.7451 13.5575 37.3908 13.3221ZM34.7959 1.35624C36.977 1.35624 38.7513 3.42637 38.7513 5.97136C38.7513 7.93712 36.2011 12.0857 34.7959 14.1475C33.3907 12.0864 30.8402 7.9385 30.8402 5.97136C30.8402 3.42637 32.6148 1.35624 34.7959 1.35624ZM18.5072 9.0534C20.9153 9.19233 22.9668 9.58424 25.6027 10.122C25.9051 10.1835 26.1059 10.4648 26.0699 10.7759C26.0362 11.0682 26.0137 11.3562 25.9876 11.647C20.7157 10.8603 18.7955 10.5817 17.6106 10.4409C17.7163 10.1173 17.8221 9.79332 17.921 9.46535C17.9981 9.21168 18.2528 9.0458 18.5072 9.0534ZM16.2117 11.3618C16.1553 11.5536 16.097 11.7436 16.0462 11.9405C15.9991 11.9371 15.9517 11.9308 15.9043 11.9248C15.1062 11.3733 13.8114 11.4061 13.7026 11.8753C13.6148 12.2538 14.5438 12.9864 15.4635 12.927C17.0413 13.2519 16.9808 12.4676 17.2835 11.4721C18.9119 11.6595 21.6698 12.0754 25.8907 12.7064C25.8567 13.0994 25.8214 13.4804 25.7751 13.8233C25.6913 14.4401 26.6845 14.7002 27.2647 14.7226C28.2963 14.9889 29.0197 14.5089 29.0181 14.0939C29.0161 13.5688 27.757 13.3577 26.9674 13.6122C26.9357 13.6041 26.9049 13.5996 26.8731 13.589C26.899 13.3568 26.9216 13.1113 26.9435 12.8609C30.0138 13.3091 31.6334 13.545 33.2875 13.7921C34.4077 15.5191 34.4305 15.5244 34.6869 15.5804C34.6833 15.5881 34.6787 15.5952 34.6751 15.603C34.9197 15.7038 35.0628 15.5776 36.0405 15.2087C36.389 15.0772 36.4667 14.8426 36.7928 14.3076C37.7238 14.4583 39.0249 14.557 39.8644 15.1386C38.5908 15.5358 37.415 16.498 37.1656 16.9805C36.3483 16.2864 35.3747 16.1304 34.3076 15.9896C2.97101 11.8198 6.59768 12.2395 5.18757 12.1688C8.84593 10.794 12.2543 10.9677 16.2117 11.3618ZM9.0841 13.6823C9.61729 13.7651 10.0709 13.8291 10.2974 13.8634C8.88882 17.5022 10.178 29.8907 10.7978 38.6418L9.46102 38.3317C8.48485 15.0529 7.91537 15.501 9.0841 13.6823ZM26.5033 42.285L24.738 41.8755C24.7373 40.2066 24.4226 38.377 24.9436 23.4621C25.0304 20.9639 25.1251 18.3858 25.6397 15.9126L27.403 16.1459C26.7112 17.9166 26.6254 20.2076 26.6401 22.0617C26.6945 28.7588 26.4551 35.4955 26.5033 42.285ZM23.8826 23.4248C23.6744 29.3854 23.4609 35.546 23.6694 41.6276L11.8808 38.893C11.1499 28.4131 9.98501 17.164 11.3855 14.0249C11.8173 14.0834 21.2108 15.3261 24.5849 15.773C24.0662 18.3096 23.9701 20.9078 23.8826 23.4248ZM36.4222 41.7782C35.5058 41.5987 34.4235 41.4396 33.4121 41.8424C32.6515 42.1457 32.0436 42.7463 31.7096 43.4927L27.5611 42.5304C27.5636 42.4591 27.7153 23.7206 27.7018 22.0534C27.6872 20.2041 27.7718 17.9053 28.4929 16.2902L33.3867 16.938C31.684 19.6805 34.3622 22.9961 37.3902 21.9034L36.4222 41.7782ZM1.89916 17.1331C3.96251 17.1803 4.91392 16.5713 5.35445 13.2382C6.21046 13.2903 7.06931 13.3897 7.9248 13.5104C6.89027 15.3452 7.48516 16.7563 8.38677 38.0824L6.31033 37.6008C6.35751 37.5196 6.3912 37.4299 6.38948 37.3295C6.37289 36.4206 6.04975 35.5304 5.47848 34.8226C4.7794 33.9559 3.67524 33.4234 3.12552 33.3966C2.88861 30.255 2.02544 18.8312 1.89916 17.1331ZM40.7865 18.209C40.547 24.1484 40.9854 35.9581 39.8575 39.992C39.5958 40.9124 38.4392 42.1729 37.4123 43.0616C37.445 42.7158 37.6085 39.1827 38.4641 21.676C38.5343 20.2366 38.4753 18.7946 37.7955 17.7154C37.8834 17.6858 37.9666 17.6412 38.0311 17.5655C38.6023 16.8957 39.381 16.3877 40.2239 16.134C40.355 16.0946 40.4558 16.0067 40.5214 15.8983C40.8174 16.5196 40.8198 17.318 40.7865 18.209Z" fill="black"/>
<path d="M12.1121 26.2677C15.5642 27.114 19.5187 29.009 19.9454 29.009C20.2015 29.009 20.4183 28.8266 20.4666 28.5791C20.8405 26.6527 21.256 25.0505 22.0695 23.496C22.2073 23.232 22.1015 22.9076 21.8366 22.7751C19.2104 21.4632 16.401 20.3856 13.4873 19.5728C13.1834 19.488 12.8687 19.6872 12.8199 20.0034C12.5369 21.8366 12.0024 23.8005 11.714 25.6712C11.6722 25.9429 11.845 26.2021 12.1121 26.2677ZM13.7706 20.7582C16.2417 21.4805 18.6308 22.3977 20.8862 23.4905C20.2534 24.8287 19.8729 26.1965 19.549 27.7559C17.4191 26.9272 15.1974 25.9857 12.8413 25.3581C13.1023 23.8572 13.4993 22.2884 13.7706 20.7582Z" fill="black"/>
<path d="M19.1123 24.5281C18.2111 23.4517 16.7987 24.2689 15.5426 22.9826C15.0528 22.4813 14.2919 23.2215 14.783 23.725C15.3231 24.2779 16.0385 24.6601 16.7971 24.8025C17.4042 24.9152 18.042 24.9039 18.298 25.2096C18.7429 25.7394 19.5653 25.0695 19.1123 24.5281Z" fill="black"/>
<path d="M37.289 5.46849C37.289 4.15245 36.2073 3.08179 34.8778 3.08179C33.5483 3.08179 32.4666 4.15245 32.4666 5.46849C32.4666 6.78383 33.5483 7.8545 34.8778 7.8545C36.2073 7.8545 37.289 6.78383 37.289 5.46849ZM34.9115 6.78954C33.9081 6.38192 33.7973 5.24197 34.3844 4.64942C34.7153 4.3154 35.2515 4.22554 35.6799 4.40906C36.7203 5.17084 36.1745 6.75822 34.9115 6.78954Z" fill="black"/>
<path d="M41.7446 4.01628C42.4231 3.57945 43.1989 3.26149 43.9883 3.09768C44.6718 2.9562 44.4662 1.91957 43.7726 2.05812C42.8436 2.25097 41.9676 2.6097 41.1696 3.12464C40.5791 3.50396 41.1588 4.39466 41.7446 4.01628Z" fill="black"/>
<path d="M44.7092 5.93512C43.8244 5.48791 42.8336 5.22319 41.8438 5.17066C41.1261 5.15208 41.0998 6.19362 41.7871 6.23095C43.4141 6.31753 44.1534 6.93943 44.4693 6.93943C45.0264 6.93943 45.2061 6.1859 44.7092 5.93512Z" fill="black"/>
<path d="M41.9131 7.68858C41.3564 7.25778 40.7091 8.09808 41.2627 8.52769C43.6436 10.3248 43.6224 10.4679 43.9469 10.4679C44.4486 10.4679 44.6736 9.82875 44.2725 9.51748L41.9131 7.68858Z" fill="black"/>
</svg>
