<svg width="48" height="45" viewBox="0 0 48 45" fill="none" xmlns="http://www.w3.org/2000/svg">
<path d="M31.5 33.5L20 42V43L23.5 42L45 35L47.5 33.5L44 29L42 26.5L31.5 33.5Z" fill="#BFBEBE"/>
<path d="M17.5 11L21.5 14L23 15.5L25.5 19.5L27.5 23.5L28.5 22L29.5 19.5V17L28.5 14L27 12.5L25 11.5L22.5 10H19.5L17.5 11Z" fill="#BFBEBE"/>
<path d="M27.4269 24.4075C29.9678 21.7919 30.6404 17.5321 29.071 14.3186C26.007 8.04109 15.9928 7.89163 12.1814 13.646C9.1174 18.3542 11.5836 24.8559 17.4127 26.799C20.8504 27.9947 24.886 27.0232 27.4269 24.4075ZM23.6155 25.6033C23.5408 25.5285 23.4661 25.4538 23.3913 25.3791C22.2703 24.9307 21.1494 24.3328 20.1778 23.5855C21.7472 22.1656 23.5408 21.0446 25.4091 20.2225C26.6048 22.3898 26.7543 23.0624 26.9038 23.2866C26.007 24.3328 24.886 25.0801 23.6155 25.6033ZM20.6262 14.0197C19.2063 15.7386 17.4875 17.1585 15.5444 18.13C14.7223 16.5606 14.1992 14.9165 13.975 13.1976C14.7971 12.3009 15.9181 11.6283 17.1138 11.1799C17.338 11.5535 18.3842 11.9272 20.6262 14.0197ZM21.3736 14.8418C22.644 16.187 23.8397 17.6816 24.8113 19.251C22.7935 20.1478 20.8504 21.4182 19.2063 22.9129C17.9359 21.8666 16.8896 20.5962 16.0675 19.251C18.16 18.0553 19.9536 16.6353 21.3736 14.8418ZM27.6511 22.2403C27.2774 21.4182 26.9038 20.5962 26.4554 19.7741C27.2027 19.4752 27.95 19.251 28.6974 19.1015C28.5479 20.2225 28.1742 21.2688 27.6511 22.2403ZM28.7721 17.9805C28.3237 17.9805 26.5301 18.5784 25.8575 18.8026C24.8113 17.0837 23.5408 15.4396 22.0461 13.945C22.8682 12.824 23.5408 11.6283 23.6903 11.1051C26.7543 12.1514 28.7721 14.6923 28.7721 17.9805ZM22.644 10.8062C22.2703 11.6283 21.8219 12.3756 21.2988 13.1229C20.402 12.3009 19.4305 11.5535 18.459 10.8062C20.0284 10.5073 21.2988 10.5073 22.644 10.8062ZM13.0782 14.4681C13.3772 15.9628 13.9003 17.3827 14.5729 18.7279C13.8256 19.1015 13.0035 19.3257 12.1814 19.5499C11.8078 17.7563 12.1814 15.9628 13.0782 14.4681ZM12.4056 20.5962C13.3024 20.372 14.1992 20.073 15.096 19.6247C15.9928 21.1193 17.1138 22.4645 18.459 23.5855C17.9359 24.1833 17.4127 24.7812 16.8896 25.3791C14.8718 24.557 13.153 22.8382 12.4056 20.5962ZM18.0106 25.8275C18.459 25.3043 18.8326 24.8559 19.3558 24.3328C20.1778 25.0054 21.1494 25.5285 22.1209 25.9769C20.701 26.2759 19.3558 26.2011 18.0106 25.8275Z" fill="black"/>
<path d="M20.1779 33.9732C20.2526 34.1227 20.4768 34.1974 20.6263 34.1974C20.7758 34.1974 20.8505 34.1227 21 34.048L35.3486 22.8381C35.5728 22.6139 35.6476 22.3149 35.4234 22.016C35.1992 21.7918 34.9002 21.7171 34.6013 21.9413L20.2526 33.1512C20.0284 33.3754 20.0284 33.6743 20.1779 33.9732Z" fill="black"/>
<path d="M19.8042 44.7348C28.9215 41.9697 37.74 38.6815 46.6332 35.2438C47.0816 35.0943 47.4552 34.6459 47.53 34.1975C47.6047 33.9733 47.6794 33.6744 47.7542 33.4502C48.0531 33.1513 47.9784 32.8523 47.7542 32.6281C46.4837 31.5072 44.8396 29.7136 42.6723 27.0232C43.8681 26.3506 45.0638 25.7527 46.1848 25.1549C46.3342 25.0801 46.4837 24.9307 46.4837 24.7812C46.4837 24.6317 46.4837 24.4075 46.409 24.3328C39.4588 15.5891 31.9856 7.29376 24.886 0.194161C24.7365 -0.0300367 24.4376 -0.0300369 24.2134 0.0446958C15.7686 3.93079 8.22059 8.78842 0.373663 15.2902C0.149465 15.5144 0.0747326 15.8133 0.298931 16.0375C0.523129 16.4111 0.822059 16.7848 1.12099 17.0837C0.822059 16.7101 0.523129 16.2617 0.149465 15.888C0.0747326 16.5606 0.0747327 17.1585 0 17.7563C6.12808 26.4253 12.2562 35.1691 18.0853 44.0622C18.459 44.6601 19.2063 44.8843 19.8042 44.7348ZM46.3343 32.8523C38.3379 36.2153 29.8183 38.9057 21.5977 41.4466C28.7721 35.6922 35.498 31.0588 41.7008 27.621C41.7008 27.6958 41.7756 27.6958 41.7756 27.6958C43.5691 30.0125 45.1385 31.7313 46.3343 32.8523ZM24.3628 1.24042C31.2383 8.11582 38.4126 16.1122 45.0638 24.4823C37.3663 28.3684 28.6973 34.1975 19.2063 41.895C14.1245 33.1513 8.22059 24.4075 1.49465 15.8133C8.96792 9.61048 16.2917 4.97705 24.3628 1.24042Z" fill="black"/>
<path d="M32.8823 4.52876C33.1812 4.52876 33.4054 4.30456 33.4054 4.00563L33.7043 1.46472C33.7043 1.16579 33.5549 0.866858 33.1812 0.866858C32.8823 0.792125 32.5834 1.01632 32.5834 1.38999L32.2844 3.9309C32.2844 4.22983 32.5086 4.52876 32.8823 4.52876Z" fill="black"/>
<path d="M35.1241 5.72442C35.2736 5.72442 35.4978 5.64969 35.5725 5.50022L37.1419 3.10878C37.2914 2.88458 37.2167 2.51092 36.9925 2.36145C36.7683 2.21199 36.3946 2.28672 36.2451 2.51092L34.6757 4.90236C34.3768 5.27603 34.6758 5.72442 35.1241 5.72442Z" fill="black"/>
<path d="M36.7684 8.19058C36.9926 8.19058 37.0674 8.11585 38.562 7.36852C38.8609 7.21906 38.9357 6.92013 38.7862 6.6212C38.6367 6.32227 38.3378 6.24753 38.0389 6.397L36.4695 7.14433C35.9464 7.36852 36.1706 8.19058 36.7684 8.19058Z" fill="black"/>
</svg>
